<svg width="267" height="77" viewBox="0 0 267 77" fill="none" xmlns="http://www.w3.org/2000/svg">
<g clip-path="url(#clip0_2359_9759)">
<path d="M97.2249 59.63C95.4516 59.63 94.0983 59.14 93.1649 58.16C92.2316 57.18 91.7649 55.8033 91.7649 54.03V15.18C91.7649 13.36 92.2316 11.9833 93.1649 11.05C94.1449 10.1167 95.5216 9.65 97.2949 9.65H114.305C119.812 9.65 124.058 11.05 127.045 13.85C130.032 16.6033 131.525 20.4533 131.525 25.4C131.525 30.3467 130.032 34.22 127.045 37.02C124.058 39.82 119.812 41.22 114.305 41.22H102.615V54.03C102.615 55.8033 102.148 57.18 101.215 58.16C100.328 59.14 98.9983 59.63 97.2249 59.63ZM102.615 32.82H112.485C115.285 32.82 117.408 32.19 118.855 30.93C120.348 29.67 121.095 27.8267 121.095 25.4C121.095 22.9733 120.348 21.1533 118.855 19.94C117.408 18.7267 115.285 18.12 112.485 18.12H102.615V32.82ZM142.659 59.56C140.933 59.56 139.603 59.07 138.669 58.09C137.783 57.0633 137.339 55.64 137.339 53.82V29.88C137.339 28.0133 137.783 26.59 138.669 25.61C139.603 24.5833 140.933 24.07 142.659 24.07C144.339 24.07 145.623 24.5833 146.509 25.61C147.443 26.59 147.909 28.0133 147.909 29.88V53.82C147.909 55.64 147.466 57.0633 146.579 58.09C145.693 59.07 144.386 59.56 142.659 59.56ZM142.659 18.33C140.699 18.33 139.183 17.8867 138.109 17C137.083 16.0667 136.569 14.76 136.569 13.08C136.569 11.3533 137.083 10.0467 138.109 9.16C139.183 8.22666 140.699 7.76 142.659 7.76C144.619 7.76 146.113 8.22666 147.139 9.16C148.166 10.0467 148.679 11.3533 148.679 13.08C148.679 14.76 148.166 16.0667 147.139 17C146.113 17.8867 144.619 18.33 142.659 18.33ZM161.39 72.23C159.663 72.23 158.333 71.7633 157.4 70.83C156.513 69.9433 156.07 68.6133 156.07 66.84V29.39C156.07 27.6633 156.513 26.3567 157.4 25.47C158.333 24.5367 159.616 24.07 161.25 24.07C162.976 24.07 164.283 24.5367 165.17 25.47C166.056 26.3567 166.5 27.6633 166.5 29.39V34.15L165.73 31.42C166.43 29.18 167.83 27.3833 169.93 26.03C172.076 24.63 174.526 23.93 177.28 23.93C180.266 23.93 182.88 24.6533 185.12 26.1C187.406 27.5467 189.18 29.6 190.44 32.26C191.7 34.92 192.33 38.0933 192.33 41.78C192.33 45.4667 191.7 48.6633 190.44 51.37C189.18 54.0767 187.43 56.1533 185.19 57.6C182.95 59.0467 180.313 59.77 177.28 59.77C174.573 59.77 172.17 59.1167 170.07 57.81C167.97 56.4567 166.546 54.7067 165.8 52.56H166.64V66.84C166.64 68.6133 166.173 69.9433 165.24 70.83C164.353 71.7633 163.07 72.23 161.39 72.23ZM174.13 51.86C175.623 51.86 176.93 51.4867 178.05 50.74C179.216 49.9933 180.103 48.8967 180.71 47.45C181.363 45.9567 181.69 44.0667 181.69 41.78C181.69 38.3733 180.99 35.8767 179.59 34.29C178.19 32.6567 176.37 31.84 174.13 31.84C172.636 31.84 171.306 32.19 170.14 32.89C169.02 33.59 168.133 34.6867 167.48 36.18C166.826 37.6267 166.5 39.4933 166.5 41.78C166.5 45.1867 167.2 47.73 168.6 49.41C170 51.0433 171.843 51.86 174.13 51.86ZM216.644 59.77C212.584 59.77 209.084 59.0467 206.144 57.6C203.251 56.1067 201.011 54.03 199.424 51.37C197.884 48.6633 197.114 45.49 197.114 41.85C197.114 38.3033 197.861 35.2 199.354 32.54C200.848 29.8333 202.924 27.7333 205.584 26.24C208.291 24.7 211.348 23.93 214.754 23.93C217.228 23.93 219.468 24.35 221.474 25.19C223.481 25.9833 225.208 27.15 226.654 28.69C228.101 30.1833 229.198 32.0267 229.944 34.22C230.691 36.3667 231.064 38.77 231.064 41.43C231.064 42.3167 230.784 42.9933 230.224 43.46C229.664 43.88 228.848 44.09 227.774 44.09H205.794V38.63H223.434L222.314 39.61C222.314 37.6967 222.034 36.11 221.474 34.85C220.914 33.5433 220.098 32.5633 219.024 31.91C217.998 31.2567 216.714 30.93 215.174 30.93C213.448 30.93 211.978 31.3267 210.764 32.12C209.551 32.9133 208.618 34.0567 207.964 35.55C207.311 37.0433 206.984 38.84 206.984 40.94V41.5C206.984 45.0467 207.801 47.66 209.434 49.34C211.114 51.02 213.588 51.86 216.854 51.86C217.974 51.86 219.258 51.72 220.704 51.44C222.151 51.16 223.504 50.7167 224.764 50.11C225.838 49.5967 226.794 49.4333 227.634 49.62C228.474 49.76 229.128 50.1333 229.594 50.74C230.061 51.3467 230.318 52.0467 230.364 52.84C230.458 53.6333 230.294 54.4267 229.874 55.22C229.454 55.9667 228.754 56.5967 227.774 57.11C226.188 57.9967 224.391 58.65 222.384 59.07C220.424 59.5367 218.511 59.77 216.644 59.77ZM242.672 59.63C240.899 59.63 239.546 59.1633 238.612 58.23C237.679 57.2967 237.212 55.9667 237.212 54.24V29.39C237.212 27.6633 237.656 26.3567 238.542 25.47C239.476 24.5367 240.759 24.07 242.392 24.07C244.072 24.07 245.356 24.5367 246.242 25.47C247.129 26.3567 247.572 27.6633 247.572 29.39V33.03H246.872C247.432 30.23 248.669 28.06 250.582 26.52C252.496 24.98 254.969 24.1167 258.002 23.93C259.169 23.8367 260.056 24.14 260.662 24.84C261.316 25.4933 261.666 26.59 261.712 28.13C261.806 29.5767 261.502 30.72 260.802 31.56C260.149 32.4 259.029 32.9133 257.442 33.1L255.832 33.24C253.172 33.4733 251.189 34.2433 249.882 35.55C248.622 36.8567 247.992 38.7467 247.992 41.22V54.24C247.992 55.9667 247.526 57.2967 246.592 58.23C245.706 59.1633 244.399 59.63 242.672 59.63Z" fill="#8439FF"/>
<path d="M28.1755 55.8333H41.5071C49.265 55.8333 53.1016 46.4102 47.55 40.9913L38.1194 32.2991C32.1615 26.8077 36.0468 16.8594 44.1495 16.8594H53.8744" stroke="#8439FF" stroke-width="9"/>
<path fill-rule="evenodd" clip-rule="evenodd" d="M20.3314 66H13.6686C9.98693 65.9968 7.00315 63.0131 7 59.3314V52.6686C7.00315 48.9869 9.98693 46.0032 13.6686 46H20.3314C24.0131 46.0032 26.9968 48.9869 27 52.6686V59.3314C26.9968 63.0131 24.0131 65.9968 20.3314 66V66Z" stroke="#8439FF" stroke-width="8" stroke-linecap="round" stroke-linejoin="round"/>
<path fill-rule="evenodd" clip-rule="evenodd" d="M69.3309 29H60.6691C55.883 28.9959 52.0041 25.117 52 20.3309V11.6691C52.0041 6.883 55.883 3.0041 60.6691 3H69.3309C74.117 3.0041 77.9959 6.883 78 11.6691V20.3309C77.9959 25.117 74.117 28.9959 69.3309 29V29Z" fill="#8439FF"/>
</g>
<defs>
<clipPath id="clip0_2359_9759">
<rect width="267" height="77" fill="white"/>
</clipPath>
</defs>
</svg>
