<svg width="267" height="77" viewBox="0 0 267 77" fill="none" xmlns="http://www.w3.org/2000/svg">
<path d="M98.43 60.4764C96.6567 60.4764 95.3033 59.9864 94.37 59.0064C93.4367 58.0264 92.97 56.6497 92.97 54.8764V16.0264C92.97 14.2064 93.4367 12.8297 94.37 11.8963C95.35 10.963 96.7267 10.4964 98.5 10.4964H115.51C121.017 10.4964 125.263 11.8964 128.25 14.6964C131.237 17.4497 132.73 21.2997 132.73 26.2464C132.73 31.193 131.237 35.0664 128.25 37.8664C125.263 40.6664 121.017 42.0664 115.51 42.0664H103.82V54.8764C103.82 56.6497 103.353 58.0264 102.42 59.0064C101.533 59.9864 100.203 60.4764 98.43 60.4764ZM103.82 33.6664H113.69C116.49 33.6664 118.613 33.0364 120.06 31.7764C121.553 30.5164 122.3 28.673 122.3 26.2464C122.3 23.8197 121.553 21.9997 120.06 20.7864C118.613 19.573 116.49 18.9664 113.69 18.9664H103.82V33.6664Z" fill="url(#paint0_linear_2385_918)"/>
<path d="M143.864 60.4064C142.138 60.4064 140.808 59.9164 139.874 58.9364C138.988 57.9097 138.544 56.4864 138.544 54.6664V30.7264C138.544 28.8597 138.988 27.4364 139.874 26.4564C140.808 25.4297 142.138 24.9164 143.864 24.9164C145.544 24.9164 146.828 25.4297 147.714 26.4564C148.648 27.4364 149.114 28.8597 149.114 30.7264V54.6664C149.114 56.4864 148.671 57.9097 147.784 58.9364C146.898 59.9164 145.591 60.4064 143.864 60.4064ZM143.864 19.1764C141.904 19.1764 140.388 18.733 139.314 17.8464C138.288 16.913 137.774 15.6064 137.774 13.9264C137.774 12.1997 138.288 10.893 139.314 10.0064C140.388 9.07302 141.904 8.60635 143.864 8.60635C145.824 8.60635 147.318 9.07302 148.344 10.0064C149.371 10.893 149.884 12.1997 149.884 13.9264C149.884 15.6064 149.371 16.913 148.344 17.8464C147.318 18.733 145.824 19.1764 143.864 19.1764Z" fill="url(#paint1_linear_2385_918)"/>
<path d="M162.595 73.0764C160.868 73.0764 159.538 72.6097 158.605 71.6764C157.718 70.7897 157.275 69.4597 157.275 67.6864V30.2364C157.275 28.5097 157.718 27.203 158.605 26.3164C159.538 25.383 160.822 24.9164 162.455 24.9164C164.182 24.9164 165.488 25.383 166.375 26.3164C167.262 27.203 167.705 28.5097 167.705 30.2364V34.9964L166.935 32.2664C167.635 30.0264 169.035 28.2297 171.135 26.8764C173.282 25.4764 175.732 24.7764 178.485 24.7764C181.472 24.7764 184.085 25.4997 186.325 26.9464C188.612 28.393 190.385 30.4464 191.645 33.1064C192.905 35.7664 193.535 38.9397 193.535 42.6264C193.535 46.313 192.905 49.5097 191.645 52.2164C190.385 54.923 188.635 56.9997 186.395 58.4464C184.155 59.893 181.518 60.6164 178.485 60.6164C175.778 60.6164 173.375 59.963 171.275 58.6564C169.175 57.303 167.752 55.553 167.005 53.4064H167.845V67.6864C167.845 69.4597 167.378 70.7897 166.445 71.6764C165.558 72.6097 164.275 73.0764 162.595 73.0764ZM175.335 52.7064C176.828 52.7064 178.135 52.333 179.255 51.5864C180.422 50.8397 181.308 49.743 181.915 48.2964C182.568 46.803 182.895 44.913 182.895 42.6264C182.895 39.2197 182.195 36.723 180.795 35.1364C179.395 33.503 177.575 32.6864 175.335 32.6864C173.842 32.6864 172.512 33.0364 171.345 33.7364C170.225 34.4364 169.338 35.533 168.685 37.0264C168.032 38.473 167.705 40.3397 167.705 42.6264C167.705 46.033 168.405 48.5764 169.805 50.2564C171.205 51.8897 173.048 52.7064 175.335 52.7064Z" fill="url(#paint2_linear_2385_918)"/>
<path d="M217.849 60.6164C213.789 60.6164 210.289 59.893 207.349 58.4464C204.456 56.953 202.216 54.8764 200.629 52.2164C199.089 49.5097 198.319 46.3364 198.319 42.6964C198.319 39.1497 199.066 36.0464 200.559 33.3864C202.053 30.6797 204.129 28.5797 206.789 27.0864C209.496 25.5464 212.553 24.7764 215.959 24.7764C218.433 24.7764 220.673 25.1964 222.679 26.0364C224.686 26.8297 226.413 27.9964 227.859 29.5364C229.306 31.0297 230.403 32.873 231.149 35.0664C231.896 37.213 232.269 39.6164 232.269 42.2764C232.269 43.163 231.989 43.8397 231.429 44.3064C230.869 44.7264 230.053 44.9364 228.979 44.9364H206.999V39.4764H224.639L223.519 40.4564C223.519 38.543 223.239 36.9564 222.679 35.6964C222.119 34.3897 221.303 33.4097 220.229 32.7564C219.203 32.103 217.919 31.7764 216.379 31.7764C214.653 31.7764 213.183 32.173 211.969 32.9664C210.756 33.7597 209.823 34.903 209.169 36.3964C208.516 37.8897 208.189 39.6864 208.189 41.7864V42.3464C208.189 45.893 209.006 48.5064 210.639 50.1864C212.319 51.8664 214.793 52.7064 218.059 52.7064C219.179 52.7064 220.463 52.5664 221.909 52.2864C223.356 52.0064 224.709 51.563 225.969 50.9564C227.043 50.443 227.999 50.2797 228.839 50.4664C229.679 50.6064 230.333 50.9797 230.799 51.5864C231.266 52.193 231.523 52.893 231.569 53.6864C231.663 54.4797 231.499 55.273 231.079 56.0664C230.659 56.813 229.959 57.443 228.979 57.9564C227.393 58.843 225.596 59.4964 223.589 59.9164C221.629 60.383 219.716 60.6164 217.849 60.6164Z" fill="url(#paint3_linear_2385_918)"/>
<path d="M243.877 60.4764C242.104 60.4764 240.751 60.0097 239.817 59.0764C238.884 58.143 238.417 56.813 238.417 55.0864V30.2364C238.417 28.5097 238.861 27.203 239.747 26.3164C240.681 25.383 241.964 24.9164 243.597 24.9164C245.277 24.9164 246.561 25.383 247.447 26.3164C248.334 27.203 248.777 28.5097 248.777 30.2364V33.8764H248.077C248.637 31.0764 249.874 28.9064 251.787 27.3664C253.701 25.8264 256.174 24.963 259.207 24.7764C260.374 24.683 261.261 24.9864 261.867 25.6864C262.521 26.3397 262.871 27.4364 262.917 28.9764C263.011 30.423 262.707 31.5664 262.007 32.4064C261.354 33.2464 260.234 33.7597 258.647 33.9464L257.037 34.0864C254.377 34.3197 252.394 35.0897 251.087 36.3964C249.827 37.703 249.197 39.593 249.197 42.0664V55.0864C249.197 56.813 248.731 58.143 247.797 59.0764C246.911 60.0097 245.604 60.4764 243.877 60.4764Z" fill="url(#paint4_linear_2385_918)"/>
<path d="M53.8749 12.3594V21.3594H44.1493C40.1449 21.3595 38.2245 26.2762 41.1688 28.9902L50.5995 37.6826L50.6473 37.7256L50.6932 37.7715C59.1323 46.0092 53.2999 60.333 41.5067 60.333H28.1757V51.333H41.5067C45.2206 51.333 47.0613 46.8336 44.4247 44.2305L35.0692 35.6084C26.098 27.3396 31.9487 12.3595 44.1493 12.3594H53.8749Z" fill="url(#paint5_linear_2385_918)"/>
<path d="M20.335 42L20.8838 42.0146C26.5167 42.3049 30.9951 46.9611 31 52.665V59.335C30.9949 65.223 26.223 69.9949 20.335 70L20.3311 66V70H13.665C7.77702 69.9949 3.0051 65.223 3 59.335V52.665L3.01465 52.1162C3.30486 46.4833 7.96109 42.0049 13.665 42H20.335ZM13.3984 50.0137C12.0518 50.1517 11.0012 51.2891 11 52.6719V59.3281L11.0137 59.6016C11.1517 60.9482 12.2891 61.9988 13.6719 62H20.3281C21.8022 61.9987 22.9971 60.8048 23 59.3311V52.6719C22.9988 51.2891 21.9482 50.1517 20.6016 50.0137L20.3281 50H13.6719L13.3984 50.0137Z" fill="url(#paint6_linear_2385_918)"/>
<path fill-rule="evenodd" clip-rule="evenodd" d="M69.3309 29H60.6691C55.883 28.9959 52.0041 25.117 52 20.3309V11.6691C52.0041 6.88301 55.883 3.0041 60.6691 3H69.3309C74.117 3.0041 77.9959 6.88301 78 11.6691V20.3309C77.9959 25.117 74.117 28.9959 69.3309 29Z" fill="url(#paint7_linear_2385_918)"/>
<defs>
<linearGradient id="paint0_linear_2385_918" x1="3" y1="38.0382" x2="262.934" y2="38.0382" gradientUnits="userSpaceOnUse">
<stop stop-color="#8439FF"/>
<stop offset="1" stop-color="#386DFF"/>
</linearGradient>
<linearGradient id="paint1_linear_2385_918" x1="3" y1="38.0382" x2="262.934" y2="38.0382" gradientUnits="userSpaceOnUse">
<stop stop-color="#8439FF"/>
<stop offset="1" stop-color="#386DFF"/>
</linearGradient>
<linearGradient id="paint2_linear_2385_918" x1="3" y1="38.0382" x2="262.934" y2="38.0382" gradientUnits="userSpaceOnUse">
<stop stop-color="#8439FF"/>
<stop offset="1" stop-color="#386DFF"/>
</linearGradient>
<linearGradient id="paint3_linear_2385_918" x1="3" y1="38.0382" x2="262.934" y2="38.0382" gradientUnits="userSpaceOnUse">
<stop stop-color="#8439FF"/>
<stop offset="1" stop-color="#386DFF"/>
</linearGradient>
<linearGradient id="paint4_linear_2385_918" x1="3" y1="38.0382" x2="262.934" y2="38.0382" gradientUnits="userSpaceOnUse">
<stop stop-color="#8439FF"/>
<stop offset="1" stop-color="#386DFF"/>
</linearGradient>
<linearGradient id="paint5_linear_2385_918" x1="3" y1="38.0382" x2="262.934" y2="38.0382" gradientUnits="userSpaceOnUse">
<stop stop-color="#8439FF"/>
<stop offset="1" stop-color="#386DFF"/>
</linearGradient>
<linearGradient id="paint6_linear_2385_918" x1="3" y1="38.0382" x2="262.934" y2="38.0382" gradientUnits="userSpaceOnUse">
<stop stop-color="#8439FF"/>
<stop offset="1" stop-color="#386DFF"/>
</linearGradient>
<linearGradient id="paint7_linear_2385_918" x1="3" y1="38.0382" x2="262.934" y2="38.0382" gradientUnits="userSpaceOnUse">
<stop stop-color="#8439FF"/>
<stop offset="1" stop-color="#386DFF"/>
</linearGradient>
</defs>
</svg>
